<mxfile host="app.diagrams.net" agent="Mozilla/5.0 (Windows NT 10.0; Win64; x64) AppleWebKit/537.36 (KHTML, like Gecko) Chrome/129.0.0.0 Safari/537.36" version="24.7.17">
  <diagram name="Página-1" id="qRImWHsiUZgeyAu0n57j">
    <mxGraphModel dx="1434" dy="780" grid="1" gridSize="10" guides="1" tooltips="1" connect="1" arrows="1" fold="1" page="1" pageScale="1" pageWidth="827" pageHeight="1169" math="0" shadow="0">
      <root>
        <mxCell id="0" />
        <mxCell id="1" parent="0" />
        <mxCell id="CQUETSADGRdmXGn7mmQE-1" value="inicio" style="ellipse;whiteSpace=wrap;html=1;aspect=fixed;fontSize=19;" parent="1" vertex="1">
          <mxGeometry x="140" y="40" width="80" height="80" as="geometry" />
        </mxCell>
        <mxCell id="3dGAsz4bgC3VauVQeowU-1" value="fim" style="ellipse;whiteSpace=wrap;html=1;aspect=fixed;fontSize=19;" vertex="1" parent="1">
          <mxGeometry x="240" y="40" width="80" height="80" as="geometry" />
        </mxCell>
        <mxCell id="3dGAsz4bgC3VauVQeowU-2" value="Entrada de dados" style="shape=parallelogram;perimeter=parallelogramPerimeter;whiteSpace=wrap;html=1;fixedSize=1;fontSize=19;" vertex="1" parent="1">
          <mxGeometry x="340" y="50" width="120" height="60" as="geometry" />
        </mxCell>
        <mxCell id="3dGAsz4bgC3VauVQeowU-3" value="Processamento/ calculos" style="rounded=0;whiteSpace=wrap;html=1;fontSize=19;" vertex="1" parent="1">
          <mxGeometry x="480" y="50" width="120" height="60" as="geometry" />
        </mxCell>
        <mxCell id="3dGAsz4bgC3VauVQeowU-4" value="decisões/ validar / se" style="rhombus;whiteSpace=wrap;html=1;fontSize=19;" vertex="1" parent="1">
          <mxGeometry x="630" y="40" width="100" height="80" as="geometry" />
        </mxCell>
        <mxCell id="3dGAsz4bgC3VauVQeowU-5" value="saida de dados / impressão" style="shape=document;whiteSpace=wrap;html=1;boundedLbl=1;fontSize=19;" vertex="1" parent="1">
          <mxGeometry x="750" y="40" width="120" height="80" as="geometry" />
        </mxCell>
        <mxCell id="3dGAsz4bgC3VauVQeowU-8" value="" style="edgeStyle=orthogonalEdgeStyle;rounded=0;orthogonalLoop=1;jettySize=auto;html=1;" edge="1" parent="1" source="3dGAsz4bgC3VauVQeowU-6" target="3dGAsz4bgC3VauVQeowU-7">
          <mxGeometry relative="1" as="geometry" />
        </mxCell>
        <mxCell id="3dGAsz4bgC3VauVQeowU-6" value="inicio" style="ellipse;whiteSpace=wrap;html=1;aspect=fixed;fillColor=#dae8fc;strokeColor=#6c8ebf;fillStyle=auto;fontSize=19;" vertex="1" parent="1">
          <mxGeometry x="480" y="200" width="80" height="80" as="geometry" />
        </mxCell>
        <mxCell id="3dGAsz4bgC3VauVQeowU-11" value="" style="edgeStyle=orthogonalEdgeStyle;rounded=0;orthogonalLoop=1;jettySize=auto;html=1;" edge="1" parent="1" source="3dGAsz4bgC3VauVQeowU-7" target="3dGAsz4bgC3VauVQeowU-10">
          <mxGeometry relative="1" as="geometry" />
        </mxCell>
        <mxCell id="3dGAsz4bgC3VauVQeowU-7" value="Nome do aluno(a)?" style="shape=parallelogram;perimeter=parallelogramPerimeter;whiteSpace=wrap;html=1;fixedSize=1;fontSize=19;fillColor=#dae8fc;strokeColor=#6c8ebf;fillStyle=auto;" vertex="1" parent="1">
          <mxGeometry x="460" y="370" width="120" height="60" as="geometry" />
        </mxCell>
        <mxCell id="3dGAsz4bgC3VauVQeowU-9" value="João" style="text;html=1;align=center;verticalAlign=middle;whiteSpace=wrap;rounded=0;" vertex="1" parent="1">
          <mxGeometry x="400" y="385" width="60" height="30" as="geometry" />
        </mxCell>
        <mxCell id="3dGAsz4bgC3VauVQeowU-14" value="" style="edgeStyle=orthogonalEdgeStyle;rounded=0;orthogonalLoop=1;jettySize=auto;html=1;" edge="1" parent="1" source="3dGAsz4bgC3VauVQeowU-10" target="3dGAsz4bgC3VauVQeowU-13">
          <mxGeometry relative="1" as="geometry" />
        </mxCell>
        <mxCell id="3dGAsz4bgC3VauVQeowU-10" value="Data de Nascimento?" style="shape=parallelogram;perimeter=parallelogramPerimeter;whiteSpace=wrap;html=1;fixedSize=1;fontSize=19;fillColor=#dae8fc;strokeColor=#6c8ebf;fillStyle=auto;" vertex="1" parent="1">
          <mxGeometry x="440" y="520" width="160" height="90" as="geometry" />
        </mxCell>
        <mxCell id="3dGAsz4bgC3VauVQeowU-12" value="12/09/1990" style="text;html=1;align=center;verticalAlign=middle;whiteSpace=wrap;rounded=0;" vertex="1" parent="1">
          <mxGeometry x="370" y="530" width="60" height="30" as="geometry" />
        </mxCell>
        <mxCell id="3dGAsz4bgC3VauVQeowU-16" value="" style="edgeStyle=orthogonalEdgeStyle;rounded=0;orthogonalLoop=1;jettySize=auto;html=1;" edge="1" parent="1" source="3dGAsz4bgC3VauVQeowU-13" target="3dGAsz4bgC3VauVQeowU-15">
          <mxGeometry relative="1" as="geometry" />
        </mxCell>
        <mxCell id="3dGAsz4bgC3VauVQeowU-13" value="Informe o RA" style="shape=parallelogram;perimeter=parallelogramPerimeter;whiteSpace=wrap;html=1;fixedSize=1;fontSize=19;fillColor=#dae8fc;strokeColor=#6c8ebf;fillStyle=auto;" vertex="1" parent="1">
          <mxGeometry x="450" y="705" width="140" height="105" as="geometry" />
        </mxCell>
        <mxCell id="3dGAsz4bgC3VauVQeowU-15" value="" style="shape=parallelogram;perimeter=parallelogramPerimeter;whiteSpace=wrap;html=1;fixedSize=1;fontSize=19;fillColor=#dae8fc;strokeColor=#6c8ebf;fillStyle=auto;" vertex="1" parent="1">
          <mxGeometry x="435" y="920" width="170" height="100" as="geometry" />
        </mxCell>
      </root>
    </mxGraphModel>
  </diagram>
</mxfile>
